# xmcd
#
# Track frame offsets:
#	150
#	17908
#	35993
#	53524
#	70029
#	87193
#	102193
#	119245
#	135120
#	151935
#	167307
#	182456
#	198280
#
# Disc length: 3443 seconds
# Revision: 0
# Processed by: cddbd v1.5.2PL0 Copyright (c) Steve Scherf et al.
# Submitted via: dBpowerAMP V12.0
#
DISCID=9e0d710d
DTITLE=Oliver Frank - Alles klar!
DYEAR=1996
DGENRE=Discofox
TTITLE0=Italienische Sehnsucht (Single-Version)
TTITLE1=Nochmal lass' ich dich nicht mehr geh'n
TTITLE2=Weit weit von hier (Single Version)
TTITLE3=Das Fieber bleibt (Single Remix)
TTITLE4=Da ist noch Platz in meinem Herzen
TTITLE5=Kleine Worte
TTITLE6=Nochmal mit dir (Single-Version)
TTITLE7=Und wieder wirst du gehen
TTITLE8=Bis ans Ende der Welt
TTITLE9=Dein Gesicht
TTITLE10=Was geht hier ab
TTITLE11=Radio und Vanilleeis
TTITLE12=Mega-Hitmix
EXTD=
EXTT0=
EXTT1=
EXTT2=
EXTT3=
EXTT4=
EXTT5=
EXTT6=
EXTT7=
EXTT8=
EXTT9=
EXTT10=
EXTT11=
EXTT12=
PLAYORDER=
